
<svg width="800px" height="565px" viewBox="0 0 800 565" version="1.1" xmlns="http://www.w3.org/2000/svg" xmlns:xlink="http://www.w3.org/1999/xlink">
    <!-- Generator: Sketch 43.2 (39069) - http://www.bohemiancoding.com/sketch -->
    <desc>Created with Sketch.</desc>
    <defs></defs>
    <g id="Page-1" stroke="none" stroke-width="1" fill="none" fill-rule="evenodd">
        <g id="Lock" transform="translate(2.000000, 2.517578)">
            <polygon id="Path-Copy" fill="#F8F806" points="32.0135136 6.60278507 7.14864875 184.70732 125.256757 201.240797 131.608108 156.882687 65.7972974 147.876646 84.5810812 14.130222"></polygon>
            <path d="M339.5,44.6432253 C349.590141,54.2317941 357.292766,65.612448 362.608108,78.7855285 C367.92345,91.958609 370.581081,106.251635 370.581081,121.665035 C370.581081,133.493924 368.869387,144.493729 365.445946,154.664781 C362.022505,164.835833 356.887422,174.133021 350.040541,182.556623 C340.220672,194.743963 327.698274,204.085957 312.472973,210.582884 C297.247672,217.079812 280.26586,220.328227 261.527027,220.328227 C244.049462,220.328227 228.554122,217.035006 215.040541,210.448466 C201.52696,203.861925 190.085632,194.027069 180.716216,180.943601 C170.445895,171.26542 162.608135,159.817557 157.202703,146.59967 C151.79727,133.381783 149.094595,118.931937 149.094595,103.249699 C149.094595,91.5104227 150.806289,80.6002289 154.22973,70.5187897 C157.65317,60.4373506 162.788254,51.1849685 169.635135,42.7613661 C179.545095,30.4844135 192.112537,21.0752114 207.337838,14.5334776 C222.563139,7.9917437 239.499907,4.72092583 258.148649,4.72092583 C275.806395,4.72092583 291.481914,8.08135515 305.175676,14.8023146 C318.869438,21.523274 330.310765,31.4701448 339.5,44.6432253 Z M285.851351,83.2213396 C282.518001,81.0706325 279.139657,79.4576265 275.716216,78.382273 C272.292776,77.3069195 268.734253,76.7692508 265.040541,76.7692508 C254.319766,76.7692508 245.513548,80.5105287 238.621622,87.9931969 C231.729695,95.4758651 228.283784,105.176304 228.283784,117.094806 C228.283784,121.844284 228.689185,126.302453 229.5,130.469448 C230.310815,134.636443 231.572064,138.512138 233.283784,142.09665 C236.707224,144.247357 240.108091,145.83796 243.486487,146.868507 C246.864882,147.899054 250.265749,148.41432 253.689189,148.41432 C264.950507,148.41432 274.139604,144.807459 281.256757,137.59363 C288.37391,130.3798 291.932432,121.037806 291.932432,109.567369 C291.932432,104.997116 291.436942,100.494141 290.445946,96.0583079 C289.45495,91.6224747 287.923434,87.343528 285.851351,83.2213396 Z" id="Combined-Shape" fill="#F8F806"></path>
            <path d="M529.959459,1.2260444 L531.986486,14.6678961 L536.378378,15.0039424 C538.135144,15.1383615 540.139628,15.2951816 542.391892,15.4744072 L549.689189,65.8813509 C544.283757,64.537159 539.238762,63.5514331 534.554054,62.9241436 C529.869346,62.296854 525.50002,61.9832139 521.445946,61.9832139 C503.968381,61.9832139 490.274824,66.3069663 480.364865,74.9546008 C470.454905,83.6022353 465.5,95.498155 465.5,110.642717 C465.5,116.19871 465.972968,121.328966 466.918919,126.033637 C467.86487,130.738309 469.328819,135.062061 471.310811,139.005024 C475.725247,142.320697 480.387363,144.762609 485.297297,146.330833 C490.207232,147.899057 495.68015,148.683157 501.716216,148.683157 C509.464003,148.683157 517.27924,147.563014 525.162162,145.322694 C533.045084,143.082374 540.995455,139.721945 549.013514,135.241306 L551.581081,154.194316 L561.581081,149.489668 L568.472973,200.165449 C556.671112,205.631829 545.027084,209.753956 533.540541,212.531953 C522.053997,215.309949 510.905459,216.698927 500.094595,216.698927 C481.535943,216.698927 465.52259,213.562526 452.054054,207.28963 C438.585518,201.016735 427.301847,191.473116 418.202703,178.658486 C407.842291,168.801079 399.936964,156.949965 394.486486,143.104789 C389.036009,129.259612 386.310811,114.048069 386.310811,97.4697023 C386.310811,67.807868 397.346736,44.1952514 419.418919,26.6311441 C441.491101,9.06703672 471.355668,0.285114783 509.013514,0.285114783 C512.256773,0.285114783 515.65764,0.35232337 519.216216,0.486742558 C522.774793,0.621161747 526.355838,0.86759323 529.959459,1.2260444 Z" id="Path-Copy-2" fill="#F8F806"></path>
            <polygon id="Path" fill="#F8F806" points="567.310811 20.4478923 630.959459 13.861385 632.581081 29.4539329 642.851351 28.6474218 646.5 63.3273991 676.905405 9.15673688 751.094595 1.09162588 740.013513 18.4316145 762.986486 16.0120812 704.878378 105.400395 796.77027 204.60126 716.77027 213.069627 704.878378 198.28359 698.527027 198.821264 655.283784 145.322694 663.121622 218.580786 599.202703 225.167293 597.445946 209.574745 587.175676 210.650093"></polygon>
            <path d="M47.0135136,25.9590515 L42.2837839,19.6413812 L71.3378379,23.6739367 L52.418919,157.554779 L118.364865,166.829657 L115.256757,188.067783 L110.662162,181.750112 L112.283784,171.534305 L46.0675677,162.125009 L64.9864866,28.3785848 L47.0135136,25.9590515 Z M32.0135136,6.60278507 L7.14864875,184.70732 L125.256757,201.240797 L131.608108,156.882687 L65.7972974,147.876646 L84.5810812,14.130222 L32.0135136,6.60278507 Z M27.0135136,0.285114783 L91.2027028,9.15673688 L89.0405406,24.7492848 L99.3108109,26.4967255 L82.418919,144.247346 L138.22973,152.312457 L136.067568,167.905005 L146.337838,169.383609 L138.22973,224.898456 L8.22972983,206.751956 L10.391892,190.756153 L0.391891995,189.411968 L27.0135136,0.285114783 Z M242.743243,164.678961 L241.527027,169.921283 C230.175619,167.412125 220.67121,162.528301 213.013514,155.269665 C205.355818,148.011028 199.635154,138.467409 195.851351,126.63852 L201.121622,124.756661 C204.364881,135.420584 209.45492,144.090491 216.391892,150.766644 C223.328864,157.442797 232.11256,162.08019 242.743243,164.678961 Z M243.013514,28.3785848 L242.067568,22.8674256 C244.950465,22.5089744 247.765752,22.2401401 250.513514,22.0609145 C253.261275,21.8816889 255.986473,21.7920775 258.689189,21.7920775 C283.013635,21.7920775 302.76569,29.7226906 317.945946,45.5841549 C333.126202,61.4456192 340.716216,82.1458637 340.716216,107.68551 C340.716216,129.282193 334.139705,147.070065 320.986487,161.049661 C307.833268,175.029256 289.319939,183.945595 265.445946,187.798946 L264.5,182.287786 C286.932545,178.703275 304.319758,170.391813 316.662162,157.353152 C329.004566,144.31449 335.175676,127.669164 335.175676,107.416673 C335.175676,83.5796698 328.081152,64.2684026 313.891892,49.4822919 C299.702632,34.6961811 281.211826,27.3032366 258.418919,27.3032366 C256.076565,27.3032366 253.621635,27.3928481 251.054054,27.5720737 C248.486474,27.7512993 245.80632,28.0201336 243.013514,28.3785848 Z M210.040541,102.443187 C210.040541,89.1804942 214.094554,78.2478975 222.202703,69.6450694 C230.310851,61.0422413 240.535974,56.7408918 252.878378,56.7408918 C266.031597,56.7408918 276.797255,61.6471186 285.175676,71.4597194 C293.554096,81.2723201 297.743243,93.9747429 297.743243,109.567369 C297.743243,122.561224 293.644185,133.247389 285.445946,141.626185 C277.247707,150.004981 266.88745,154.194316 254.364865,154.194316 C241.121555,154.194316 230.423464,149.467312 222.27027,140.013163 C214.117076,130.559013 210.040541,118.035813 210.040541,102.443187 Z M258.689189,10.5009221 C245.53597,10.5009221 233.216274,12.1811367 221.72973,15.5416164 C210.243186,18.9020961 200.08563,23.8083229 191.256757,30.260444 C179.454896,38.8632721 170.445977,49.3702144 164.22973,61.7815862 C158.013482,74.1929579 154.905405,88.0155238 154.905405,103.249699 C154.905405,115.79549 156.797278,127.601798 160.581081,138.668978 C164.364884,149.736158 169.950414,159.884654 177.337838,169.114772 C185.536077,179.151404 195.828767,186.880392 208.216216,192.301966 C220.603666,197.72354 234.229655,200.434286 249.094595,200.434286 C261.887451,200.434286 274.004447,198.731669 285.445946,195.326382 C296.887445,191.921096 307.157612,186.947661 316.256757,180.405927 C327.968527,171.982325 336.909879,161.587397 343.081081,149.220831 C349.252283,136.854266 352.337838,123.009297 352.337838,107.68551 C352.337838,94.9604931 350.468487,83.0869762 346.72973,72.0646027 C342.990972,61.0422292 337.47301,50.9609413 330.175676,41.8204364 C321.977437,31.7838037 311.707269,24.0548163 299.364865,18.6332423 C287.022461,13.2116684 273.464038,10.5009221 258.689189,10.5009221 Z M285.851351,83.2213396 C282.518001,81.0706325 279.139657,79.4576265 275.716216,78.382273 C272.292776,77.3069195 268.734253,76.7692508 265.040541,76.7692508 C254.319766,76.7692508 245.513548,80.5105287 238.621622,87.9931969 C231.729695,95.4758651 228.283784,105.176304 228.283784,117.094806 C228.283784,121.844284 228.689185,126.302453 229.5,130.469448 C230.310815,134.636443 231.572064,138.512138 233.283784,142.09665 C236.707224,144.247357 240.108091,145.83796 243.486487,146.868507 C246.864882,147.899054 250.265749,148.41432 253.689189,148.41432 C264.950507,148.41432 274.139604,144.807459 281.256757,137.59363 C288.37391,130.3798 291.932432,121.037806 291.932432,109.567369 C291.932432,104.997116 291.436942,100.494141 290.445946,96.0583079 C289.45495,91.6224747 287.923434,87.343528 285.851351,83.2213396 Z M339.5,44.6432253 C349.590141,54.2317941 357.292766,65.612448 362.608108,78.7855285 C367.92345,91.958609 370.581081,106.251635 370.581081,121.665035 C370.581081,133.493924 368.869387,144.493729 365.445946,154.664781 C362.022505,164.835833 356.887422,174.133021 350.040541,182.556623 C340.220672,194.743963 327.698274,204.085957 312.472973,210.582884 C297.247672,217.079812 280.26586,220.328227 261.527027,220.328227 C244.049462,220.328227 228.554122,217.035006 215.040541,210.448466 C201.52696,203.861925 190.085632,194.027069 180.716216,180.943601 C170.445895,171.26542 162.608135,159.817557 157.202703,146.59967 C151.79727,133.381783 149.094595,118.931937 149.094595,103.249699 C149.094595,91.5104227 150.806289,80.6002289 154.22973,70.5187897 C157.65317,60.4373506 162.788254,51.1849685 169.635135,42.7613661 C179.545095,30.4844135 192.112537,21.0752114 207.337838,14.5334776 C222.563139,7.9917437 239.499907,4.72092583 258.148649,4.72092583 C275.806395,4.72092583 291.481914,8.08135515 305.175676,14.8023146 C318.869438,21.523274 330.310765,31.4701448 339.5,44.6432253 Z M509.824324,22.8674256 C508.923419,22.8674256 507.66217,22.8226199 506.040541,22.7330071 C504.418911,22.6433943 503.157662,22.5985886 502.256757,22.5985886 C499.46395,22.5985886 496.851364,22.6882 494.418919,22.8674256 C491.986474,23.0466512 489.734245,23.3154855 487.662162,23.6739367 L486.851351,18.5660331 C490.995516,18.0283563 494.531517,17.6475076 497.459459,17.4234757 C500.387402,17.1994437 502.932422,17.0874294 505.094595,17.0874294 C505.9955,17.0874294 507.121615,17.1322351 508.472973,17.2218479 C509.824331,17.3114607 511.806293,17.4458778 514.418919,17.6251034 L516.716216,33.0832329 L510.905405,30.529281 L509.824324,22.8674256 Z M439.148649,121.127361 C444.013538,135.465408 451.851297,146.487616 462.662162,154.194316 C473.473027,161.901017 486.490915,165.754309 501.716216,165.754309 C506.130653,165.754309 511.017991,165.37346 516.378378,164.611751 C521.738766,163.850043 527.842308,162.662691 534.689189,161.049661 L536.851351,175.701279 L531.310811,176.50779 L530.22973,167.905005 C524.914388,169.069971 519.846871,169.92128 515.027027,170.458957 C510.207183,170.996634 505.770291,171.265468 501.716216,171.265468 C485.229647,171.265468 471.108167,167.031327 459.351351,158.562918 C447.594536,150.094509 439.238764,138.19859 434.283784,122.874802 L439.148649,121.127361 Z M524.959459,6.60278507 C521.265747,6.33394669 517.774791,6.13232093 514.486486,5.99790174 C511.198182,5.86348255 508.247761,5.79627397 505.635135,5.79627397 C471.671001,5.79627397 444.30641,14.2197501 423.540541,31.0669551 C402.774671,47.9141601 392.391892,69.9585764 392.391892,97.2008653 C392.391892,128.296504 400.860276,152.626013 417.797297,170.19012 C434.734319,187.754227 458.292642,196.536149 488.472973,196.536149 C497.752299,196.536149 507.594543,195.348797 518,192.974058 C528.405457,190.599319 538.968415,187.126876 549.689189,182.556623 L544.418919,143.709672 C537.752219,147.294184 530.905441,149.982527 523.878378,151.774783 C516.851316,153.567039 509.644181,154.463153 502.256757,154.463153 C485.590007,154.463153 472.211762,149.153675 462.121622,138.534559 C452.031481,127.915443 446.986486,113.779237 446.986486,96.1255172 C446.986486,79.5471506 452.572016,66.3518648 463.743243,56.539264 C474.91447,46.7266632 490.094499,41.8204364 509.283784,41.8204364 C512.617134,41.8204364 516.018001,42.0220622 519.486486,42.4253198 C522.954972,42.8285773 526.536018,43.4782603 530.22973,44.3743883 L524.959459,6.60278507 Z M529.959459,1.2260444 L531.986486,14.6678961 L536.378378,15.0039424 C538.135144,15.1383615 540.139628,15.2951816 542.391892,15.4744072 L549.689189,65.8813509 C544.283757,64.537159 539.238762,63.5514331 534.554054,62.9241436 C529.869346,62.296854 525.50002,61.9832139 521.445946,61.9832139 C503.968381,61.9832139 490.274824,66.3069663 480.364865,74.9546008 C470.454905,83.6022353 465.5,95.498155 465.5,110.642717 C465.5,116.19871 465.972968,121.328966 466.918919,126.033637 C467.86487,130.738309 469.328819,135.062061 471.310811,139.005024 C475.725247,142.320697 480.387363,144.762609 485.297297,146.330833 C490.207232,147.899057 495.68015,148.683157 501.716216,148.683157 C509.464003,148.683157 517.27924,147.563014 525.162162,145.322694 C533.045084,143.082374 540.995455,139.721945 549.013514,135.241306 L551.581081,154.194316 L561.581081,149.489668 L568.472973,200.165449 C556.671112,205.631829 545.027084,209.753956 533.540541,212.531953 C522.053997,215.309949 510.905459,216.698927 500.094595,216.698927 C481.535943,216.698927 465.52259,213.562526 452.054054,207.28963 C438.585518,201.016735 427.301847,191.473116 418.202703,178.658486 C407.842291,168.801079 399.936964,156.949965 394.486486,143.104789 C389.036009,129.259612 386.310811,114.048069 386.310811,97.4697023 C386.310811,67.807868 397.346736,44.1952514 419.418919,26.6311441 C441.491101,9.06703672 471.355668,0.285114783 509.013514,0.285114783 C512.256773,0.285114783 515.65764,0.35232337 519.216216,0.486742558 C522.774793,0.621161747 526.355838,0.86759323 529.959459,1.2260444 Z M592.716216,40.4762513 L586.635135,35.7716032 L615.148649,32.8143958 L621.22973,90.883195 L615.148649,85.6408729 L610.418919,38.8632291 L592.716216,40.4762513 Z M690.959459,30.260444 L687.716216,25.0181219 L717.04054,22.0609145 L668.932432,96.9320283 L742.175676,177.045464 L730.554054,172.609653 L661.905405,97.4697023 L705.959459,28.6474218 L690.959459,30.260444 Z M619.878378,127.982706 L624.608108,121.665035 L631.77027,188.605457 L625.689189,183.363134 L619.878378,127.982706 Z M573.662162,25.6902144 L592.445946,204.332423 L644.472973,198.821264 L636.5,121.665035 L641.77027,119.245502 L701.22973,193.041268 L766.364865,186.185923 L683.527027,95.8566801 L739.743243,8.35022578 L680.554054,14.399059 L638.391892,89.2701728 L632.851351,87.7915691 L625.689189,20.1790553 L573.662162,25.6902144 Z M567.310811,20.4478923 L630.959459,13.861385 L632.581081,29.4539329 L642.851351,28.6474218 L646.5,63.3273991 L676.905405,9.15673688 L751.094595,1.09162588 L740.013513,18.4316145 L762.986486,16.0120812 L704.878378,105.400395 L796.77027,204.60126 L716.77027,213.069627 L704.878378,198.28359 L698.527027,198.821264 L655.283784,145.322694 L663.121622,218.580786 L599.202703,225.167293 L597.445946,209.574745 L587.175676,210.650093 L567.310811,20.4478923 Z" fill="#455A64"></path>
        </g>
        <g id="The" transform="translate(69.189189, 172.573279)">
            <polygon id="Path-Copy-4" fill="#F8F806" points="195.945946 42.4762513 206.216216 43.8204364 198.378378 99.4697023 134.72973 90.5980802 115.945946 224.478923 52.5675676 215.607301 54.7297297 199.611497 44.4594595 198.267312 61.0810811 80.382273 7.97297297 72.7204175 10.2702703 56.9934511 0 55.6492659 7.97297297 0 198.108108 26.7492848"></polygon>
            <polygon id="Path-Copy-5" fill="#F8F806" points="213.567568 27.0181219 276.945946 18.2809183 279.243243 33.8734662 289.513513 32.529281 296.135135 79.8445989 333.972973 74.6022768 325.189189 11.5599924 388.567568 2.55395182 391 18.5497553 401 16.8023146 427.891892 206.198005 364.513513 215.069627 362.216216 199.34266 351.945946 200.686845 344.243243 147.053857 306.405405 152.565016 316 221.924971 252.621622 230.796593 250.459459 215.069627 240.459459 216.413812"></polygon>
            <polygon id="Path-Copy-6" fill="#F8F806" points="433.351351 24.0609145 564.297297 5.51115918 566.459459 21.5069627 576.72973 20.1627775 583.081081 65.8650732 515.648649 75.1399508 516.72973 82.9362248 574.027027 74.8711138 576.459459 90.5980802 586.459459 89.2538951 592.810811 134.956191 525.513513 144.365487 526.459459 152.027342 583.891892 143.962231 586.189189 159.689198 596.459459 158.345013 603.351351 209.28963 472.405405 227.704967 470.243243 211.978001 460.243243 213.456604"></polygon>
            <path d="M27.7027027,25.9427737 L22.972973,19.6251034 L178.243243,41.4009031 L175.135135,62.7734473 L170.405405,56.455777 L172.162162,45.9711327 L27.7027027,25.9427737 Z M109.864865,68.0157694 L92.972973,187.782668 L64.4594595,183.615694 L70.5405405,179.045464 L88.2432432,181.464998 L105.135135,61.6980992 L109.864865,68.0157694 Z M12.972973,6.72092583 L6.62162162,50.6757808 L70,59.8162399 L51.2162162,193.562664 L102.972973,200.686845 L121.756757,66.9404213 L185.405405,75.8120434 L191.486486,31.7227699 L12.972973,6.72092583 Z M195.945946,42.4762513 L206.216216,43.8204364 L198.378378,99.4697023 L134.72973,90.5980802 L115.945946,224.478923 L52.5675676,215.607301 L54.7297297,199.611497 L44.4594595,198.267312 L61.0810811,80.382273 L7.97297297,72.7204175 L10.2702703,56.9934511 L0,55.6492659 L7.97297297,0 L198.108108,26.7492848 L195.945946,42.4762513 Z M351.405405,30.6474218 L345.054054,26.2116108 L373.567568,22.0446367 L395.459459,177.298023 L389.378378,172.324538 L368.837838,28.362307 L351.405405,30.6474218 Z M233.567568,41.6697402 L262.081081,37.7716032 L270.864865,100.813888 L338.162162,91.4045913 L344.513513,96.1092394 L266.27027,107.131558 L257.081081,43.8204364 L239.648649,46.2399697 L233.567568,41.6697402 Z M275.864865,137.644561 L283.972973,193.02499 L277.621622,188.051505 L269.783784,132.805494 L275.864865,137.644561 Z M220.324324,31.991607 L245.459459,209.827305 L297.216216,202.703123 L287.216216,133.343169 L347.351351,125.009221 L356.945946,194.369175 L408.702703,186.976157 L383.567568,9.14045913 L331.810811,16.2646405 L341,79.5757619 L280.864865,87.9097099 L272.081081,24.8674256 L220.324324,31.991607 Z M213.567568,27.0181219 L276.945946,18.2809183 L279.243243,33.8734662 L289.513513,32.529281 L296.135135,79.8445989 L333.972973,74.6022768 L325.189189,11.5599924 L388.567568,2.55395182 L391,18.5497553 L401,16.8023146 L427.891892,206.198005 L364.513513,215.069627 L362.216216,199.34266 L351.945946,200.686845 L344.243243,147.053857 L306.405405,152.565016 L316,221.924971 L252.621622,230.796593 L250.459459,215.069627 L240.459459,216.413812 L213.567568,27.0181219 Z M459.702703,43.2827624 L453.351351,38.5781143 L549.297297,25.1362626 L551.864865,44.0892735 L545.783784,39.1157884 L544.702703,31.4539329 L459.702703,43.2827624 Z M489.567567,129.982706 L495.918919,134.956191 L501.189189,172.996631 L568.756757,163.318498 L571.189189,181.733835 L565.108108,177.298023 L564.027027,169.636168 L496.459459,179.045464 L489.567567,129.982706 Z M479.837838,60.8915881 L486.324324,65.8650732 L491.459459,103.771095 L559.027027,94.2273802 L561.594594,112.642717 L555.513513,108.206906 L554.297297,100.54505 L486.864865,109.954347 L479.837838,60.8915881 Z M440.108108,28.8999811 L465.243243,206.735679 L584.567567,190.33662 L579.027027,150.41432 L511.459459,159.689198 L507.27027,130.52038 L574.837838,120.842246 L569.027027,81.3232026 L501.459459,90.8669173 L497.27027,61.4292621 L564.837838,52.019966 L559.297297,12.0976665 L440.108108,28.8999811 Z M433.351351,24.0609145 L564.297297,5.51115918 L566.459459,21.5069627 L576.72973,20.1627775 L583.081081,65.8650732 L515.648649,75.1399508 L516.72973,82.9362248 L574.027027,74.8711138 L576.459459,90.5980802 L586.459459,89.2538951 L592.810811,134.956191 L525.513513,144.365487 L526.459459,152.027342 L583.891892,143.962231 L586.189189,159.689198 L596.459459,158.345013 L603.351351,209.28963 L472.405405,227.704967 L470.243243,211.978001 L460.243243,213.456604 L433.351351,24.0609145 Z" fill="#455A64"></path>
        </g>
        <g id="Lock" transform="translate(2.000000, 338.026196)">
            <polygon id="Path-Copy" fill="#F8F806" points="32.0135136 6.60278507 7.14864875 184.70732 125.256757 201.240797 131.608108 156.882687 65.7972974 147.876646 84.5810812 14.130222"></polygon>
            <path d="M339.5,44.6432253 C349.590141,54.2317941 357.292766,65.612448 362.608108,78.7855285 C367.92345,91.958609 370.581081,106.251635 370.581081,121.665035 C370.581081,133.493924 368.869387,144.493729 365.445946,154.664781 C362.022505,164.835833 356.887422,174.133021 350.040541,182.556623 C340.220672,194.743963 327.698274,204.085957 312.472973,210.582884 C297.247672,217.079812 280.26586,220.328227 261.527027,220.328227 C244.049462,220.328227 228.554122,217.035006 215.040541,210.448466 C201.52696,203.861925 190.085632,194.027069 180.716216,180.943601 C170.445895,171.26542 162.608135,159.817557 157.202703,146.59967 C151.79727,133.381783 149.094595,118.931937 149.094595,103.249699 C149.094595,91.5104227 150.806289,80.6002289 154.22973,70.5187897 C157.65317,60.4373506 162.788254,51.1849685 169.635135,42.7613661 C179.545095,30.4844135 192.112537,21.0752114 207.337838,14.5334776 C222.563139,7.9917437 239.499907,4.72092583 258.148649,4.72092583 C275.806395,4.72092583 291.481914,8.08135515 305.175676,14.8023146 C318.869438,21.523274 330.310765,31.4701448 339.5,44.6432253 Z M285.851351,83.2213396 C282.518001,81.0706325 279.139657,79.4576265 275.716216,78.382273 C272.292776,77.3069195 268.734253,76.7692508 265.040541,76.7692508 C254.319766,76.7692508 245.513548,80.5105287 238.621622,87.9931969 C231.729695,95.4758651 228.283784,105.176304 228.283784,117.094806 C228.283784,121.844284 228.689185,126.302453 229.5,130.469448 C230.310815,134.636443 231.572064,138.512138 233.283784,142.09665 C236.707224,144.247357 240.108091,145.83796 243.486487,146.868507 C246.864882,147.899054 250.265749,148.41432 253.689189,148.41432 C264.950507,148.41432 274.139604,144.807459 281.256757,137.59363 C288.37391,130.3798 291.932432,121.037806 291.932432,109.567369 C291.932432,104.997116 291.436942,100.494141 290.445946,96.0583079 C289.45495,91.6224747 287.923434,87.343528 285.851351,83.2213396 Z" id="Combined-Shape" fill="#F8F806"></path>
            <path d="M529.959459,1.2260444 L531.986486,14.6678961 L536.378378,15.0039424 C538.135144,15.1383615 540.139628,15.2951816 542.391892,15.4744072 L549.689189,65.8813509 C544.283757,64.537159 539.238762,63.5514331 534.554054,62.9241436 C529.869346,62.296854 525.50002,61.9832139 521.445946,61.9832139 C503.968381,61.9832139 490.274824,66.3069663 480.364865,74.9546008 C470.454905,83.6022353 465.5,95.498155 465.5,110.642717 C465.5,116.19871 465.972968,121.328966 466.918919,126.033637 C467.86487,130.738309 469.328819,135.062061 471.310811,139.005024 C475.725247,142.320697 480.387363,144.762609 485.297297,146.330833 C490.207232,147.899057 495.68015,148.683157 501.716216,148.683157 C509.464003,148.683157 517.27924,147.563014 525.162162,145.322694 C533.045084,143.082374 540.995455,139.721945 549.013514,135.241306 L551.581081,154.194316 L561.581081,149.489668 L568.472973,200.165449 C556.671112,205.631829 545.027084,209.753956 533.540541,212.531953 C522.053997,215.309949 510.905459,216.698927 500.094595,216.698927 C481.535943,216.698927 465.52259,213.562526 452.054054,207.28963 C438.585518,201.016735 427.301847,191.473116 418.202703,178.658486 C407.842291,168.801079 399.936964,156.949965 394.486486,143.104789 C389.036009,129.259612 386.310811,114.048069 386.310811,97.4697023 C386.310811,67.807868 397.346736,44.1952514 419.418919,26.6311441 C441.491101,9.06703672 471.355668,0.285114783 509.013514,0.285114783 C512.256773,0.285114783 515.65764,0.35232337 519.216216,0.486742558 C522.774793,0.621161747 526.355838,0.86759323 529.959459,1.2260444 Z" id="Path-Copy-2" fill="#F8F806"></path>
            <polygon id="Path" fill="#F8F806" points="567.310811 20.4478923 630.959459 13.861385 632.581081 29.4539329 642.851351 28.6474218 646.5 63.3273991 676.905405 9.15673688 751.094595 1.09162588 740.013513 18.4316145 762.986486 16.0120812 704.878378 105.400395 796.77027 204.60126 716.77027 213.069627 704.878378 198.28359 698.527027 198.821264 655.283784 145.322694 663.121622 218.580786 599.202703 225.167293 597.445946 209.574745 587.175676 210.650093"></polygon>
            <path d="M47.0135136,25.9590515 L42.2837839,19.6413812 L71.3378379,23.6739367 L52.418919,157.554779 L118.364865,166.829657 L115.256757,188.067783 L110.662162,181.750112 L112.283784,171.534305 L46.0675677,162.125009 L64.9864866,28.3785848 L47.0135136,25.9590515 Z M32.0135136,6.60278507 L7.14864875,184.70732 L125.256757,201.240797 L131.608108,156.882687 L65.7972974,147.876646 L84.5810812,14.130222 L32.0135136,6.60278507 Z M27.0135136,0.285114783 L91.2027028,9.15673688 L89.0405406,24.7492848 L99.3108109,26.4967255 L82.418919,144.247346 L138.22973,152.312457 L136.067568,167.905005 L146.337838,169.383609 L138.22973,224.898456 L8.22972983,206.751956 L10.391892,190.756153 L0.391891995,189.411968 L27.0135136,0.285114783 Z M242.743243,164.678961 L241.527027,169.921283 C230.175619,167.412125 220.67121,162.528301 213.013514,155.269665 C205.355818,148.011028 199.635154,138.467409 195.851351,126.63852 L201.121622,124.756661 C204.364881,135.420584 209.45492,144.090491 216.391892,150.766644 C223.328864,157.442797 232.11256,162.08019 242.743243,164.678961 Z M243.013514,28.3785848 L242.067568,22.8674256 C244.950465,22.5089744 247.765752,22.2401401 250.513514,22.0609145 C253.261275,21.8816889 255.986473,21.7920775 258.689189,21.7920775 C283.013635,21.7920775 302.76569,29.7226906 317.945946,45.5841549 C333.126202,61.4456192 340.716216,82.1458637 340.716216,107.68551 C340.716216,129.282193 334.139705,147.070065 320.986487,161.049661 C307.833268,175.029256 289.319939,183.945595 265.445946,187.798946 L264.5,182.287786 C286.932545,178.703275 304.319758,170.391813 316.662162,157.353152 C329.004566,144.31449 335.175676,127.669164 335.175676,107.416673 C335.175676,83.5796698 328.081152,64.2684026 313.891892,49.4822919 C299.702632,34.6961811 281.211826,27.3032366 258.418919,27.3032366 C256.076565,27.3032366 253.621635,27.3928481 251.054054,27.5720737 C248.486474,27.7512993 245.80632,28.0201336 243.013514,28.3785848 Z M210.040541,102.443187 C210.040541,89.1804942 214.094554,78.2478975 222.202703,69.6450694 C230.310851,61.0422413 240.535974,56.7408918 252.878378,56.7408918 C266.031597,56.7408918 276.797255,61.6471186 285.175676,71.4597194 C293.554096,81.2723201 297.743243,93.9747429 297.743243,109.567369 C297.743243,122.561224 293.644185,133.247389 285.445946,141.626185 C277.247707,150.004981 266.88745,154.194316 254.364865,154.194316 C241.121555,154.194316 230.423464,149.467312 222.27027,140.013163 C214.117076,130.559013 210.040541,118.035813 210.040541,102.443187 Z M258.689189,10.5009221 C245.53597,10.5009221 233.216274,12.1811367 221.72973,15.5416164 C210.243186,18.9020961 200.08563,23.8083229 191.256757,30.260444 C179.454896,38.8632721 170.445977,49.3702144 164.22973,61.7815862 C158.013482,74.1929579 154.905405,88.0155238 154.905405,103.249699 C154.905405,115.79549 156.797278,127.601798 160.581081,138.668978 C164.364884,149.736158 169.950414,159.884654 177.337838,169.114772 C185.536077,179.151404 195.828767,186.880392 208.216216,192.301966 C220.603666,197.72354 234.229655,200.434286 249.094595,200.434286 C261.887451,200.434286 274.004447,198.731669 285.445946,195.326382 C296.887445,191.921096 307.157612,186.947661 316.256757,180.405927 C327.968527,171.982325 336.909879,161.587397 343.081081,149.220831 C349.252283,136.854266 352.337838,123.009297 352.337838,107.68551 C352.337838,94.9604931 350.468487,83.0869762 346.72973,72.0646027 C342.990972,61.0422292 337.47301,50.9609413 330.175676,41.8204364 C321.977437,31.7838037 311.707269,24.0548163 299.364865,18.6332423 C287.022461,13.2116684 273.464038,10.5009221 258.689189,10.5009221 Z M285.851351,83.2213396 C282.518001,81.0706325 279.139657,79.4576265 275.716216,78.382273 C272.292776,77.3069195 268.734253,76.7692508 265.040541,76.7692508 C254.319766,76.7692508 245.513548,80.5105287 238.621622,87.9931969 C231.729695,95.4758651 228.283784,105.176304 228.283784,117.094806 C228.283784,121.844284 228.689185,126.302453 229.5,130.469448 C230.310815,134.636443 231.572064,138.512138 233.283784,142.09665 C236.707224,144.247357 240.108091,145.83796 243.486487,146.868507 C246.864882,147.899054 250.265749,148.41432 253.689189,148.41432 C264.950507,148.41432 274.139604,144.807459 281.256757,137.59363 C288.37391,130.3798 291.932432,121.037806 291.932432,109.567369 C291.932432,104.997116 291.436942,100.494141 290.445946,96.0583079 C289.45495,91.6224747 287.923434,87.343528 285.851351,83.2213396 Z M339.5,44.6432253 C349.590141,54.2317941 357.292766,65.612448 362.608108,78.7855285 C367.92345,91.958609 370.581081,106.251635 370.581081,121.665035 C370.581081,133.493924 368.869387,144.493729 365.445946,154.664781 C362.022505,164.835833 356.887422,174.133021 350.040541,182.556623 C340.220672,194.743963 327.698274,204.085957 312.472973,210.582884 C297.247672,217.079812 280.26586,220.328227 261.527027,220.328227 C244.049462,220.328227 228.554122,217.035006 215.040541,210.448466 C201.52696,203.861925 190.085632,194.027069 180.716216,180.943601 C170.445895,171.26542 162.608135,159.817557 157.202703,146.59967 C151.79727,133.381783 149.094595,118.931937 149.094595,103.249699 C149.094595,91.5104227 150.806289,80.6002289 154.22973,70.5187897 C157.65317,60.4373506 162.788254,51.1849685 169.635135,42.7613661 C179.545095,30.4844135 192.112537,21.0752114 207.337838,14.5334776 C222.563139,7.9917437 239.499907,4.72092583 258.148649,4.72092583 C275.806395,4.72092583 291.481914,8.08135515 305.175676,14.8023146 C318.869438,21.523274 330.310765,31.4701448 339.5,44.6432253 Z M509.824324,22.8674256 C508.923419,22.8674256 507.66217,22.8226199 506.040541,22.7330071 C504.418911,22.6433943 503.157662,22.5985886 502.256757,22.5985886 C499.46395,22.5985886 496.851364,22.6882 494.418919,22.8674256 C491.986474,23.0466512 489.734245,23.3154855 487.662162,23.6739367 L486.851351,18.5660331 C490.995516,18.0283563 494.531517,17.6475076 497.459459,17.4234757 C500.387402,17.1994437 502.932422,17.0874294 505.094595,17.0874294 C505.9955,17.0874294 507.121615,17.1322351 508.472973,17.2218479 C509.824331,17.3114607 511.806293,17.4458778 514.418919,17.6251034 L516.716216,33.0832329 L510.905405,30.529281 L509.824324,22.8674256 Z M439.148649,121.127361 C444.013538,135.465408 451.851297,146.487616 462.662162,154.194316 C473.473027,161.901017 486.490915,165.754309 501.716216,165.754309 C506.130653,165.754309 511.017991,165.37346 516.378378,164.611751 C521.738766,163.850043 527.842308,162.662691 534.689189,161.049661 L536.851351,175.701279 L531.310811,176.50779 L530.22973,167.905005 C524.914388,169.069971 519.846871,169.92128 515.027027,170.458957 C510.207183,170.996634 505.770291,171.265468 501.716216,171.265468 C485.229647,171.265468 471.108167,167.031327 459.351351,158.562918 C447.594536,150.094509 439.238764,138.19859 434.283784,122.874802 L439.148649,121.127361 Z M524.959459,6.60278507 C521.265747,6.33394669 517.774791,6.13232093 514.486486,5.99790174 C511.198182,5.86348255 508.247761,5.79627397 505.635135,5.79627397 C471.671001,5.79627397 444.30641,14.2197501 423.540541,31.0669551 C402.774671,47.9141601 392.391892,69.9585764 392.391892,97.2008653 C392.391892,128.296504 400.860276,152.626013 417.797297,170.19012 C434.734319,187.754227 458.292642,196.536149 488.472973,196.536149 C497.752299,196.536149 507.594543,195.348797 518,192.974058 C528.405457,190.599319 538.968415,187.126876 549.689189,182.556623 L544.418919,143.709672 C537.752219,147.294184 530.905441,149.982527 523.878378,151.774783 C516.851316,153.567039 509.644181,154.463153 502.256757,154.463153 C485.590007,154.463153 472.211762,149.153675 462.121622,138.534559 C452.031481,127.915443 446.986486,113.779237 446.986486,96.1255172 C446.986486,79.5471506 452.572016,66.3518648 463.743243,56.539264 C474.91447,46.7266632 490.094499,41.8204364 509.283784,41.8204364 C512.617134,41.8204364 516.018001,42.0220622 519.486486,42.4253198 C522.954972,42.8285773 526.536018,43.4782603 530.22973,44.3743883 L524.959459,6.60278507 Z M529.959459,1.2260444 L531.986486,14.6678961 L536.378378,15.0039424 C538.135144,15.1383615 540.139628,15.2951816 542.391892,15.4744072 L549.689189,65.8813509 C544.283757,64.537159 539.238762,63.5514331 534.554054,62.9241436 C529.869346,62.296854 525.50002,61.9832139 521.445946,61.9832139 C503.968381,61.9832139 490.274824,66.3069663 480.364865,74.9546008 C470.454905,83.6022353 465.5,95.498155 465.5,110.642717 C465.5,116.19871 465.972968,121.328966 466.918919,126.033637 C467.86487,130.738309 469.328819,135.062061 471.310811,139.005024 C475.725247,142.320697 480.387363,144.762609 485.297297,146.330833 C490.207232,147.899057 495.68015,148.683157 501.716216,148.683157 C509.464003,148.683157 517.27924,147.563014 525.162162,145.322694 C533.045084,143.082374 540.995455,139.721945 549.013514,135.241306 L551.581081,154.194316 L561.581081,149.489668 L568.472973,200.165449 C556.671112,205.631829 545.027084,209.753956 533.540541,212.531953 C522.053997,215.309949 510.905459,216.698927 500.094595,216.698927 C481.535943,216.698927 465.52259,213.562526 452.054054,207.28963 C438.585518,201.016735 427.301847,191.473116 418.202703,178.658486 C407.842291,168.801079 399.936964,156.949965 394.486486,143.104789 C389.036009,129.259612 386.310811,114.048069 386.310811,97.4697023 C386.310811,67.807868 397.346736,44.1952514 419.418919,26.6311441 C441.491101,9.06703672 471.355668,0.285114783 509.013514,0.285114783 C512.256773,0.285114783 515.65764,0.35232337 519.216216,0.486742558 C522.774793,0.621161747 526.355838,0.86759323 529.959459,1.2260444 Z M592.716216,40.4762513 L586.635135,35.7716032 L615.148649,32.8143958 L621.22973,90.883195 L615.148649,85.6408729 L610.418919,38.8632291 L592.716216,40.4762513 Z M690.959459,30.260444 L687.716216,25.0181219 L717.04054,22.0609145 L668.932432,96.9320283 L742.175676,177.045464 L730.554054,172.609653 L661.905405,97.4697023 L705.959459,28.6474218 L690.959459,30.260444 Z M619.878378,127.982706 L624.608108,121.665035 L631.77027,188.605457 L625.689189,183.363134 L619.878378,127.982706 Z M573.662162,25.6902144 L592.445946,204.332423 L644.472973,198.821264 L636.5,121.665035 L641.77027,119.245502 L701.22973,193.041268 L766.364865,186.185923 L683.527027,95.8566801 L739.743243,8.35022578 L680.554054,14.399059 L638.391892,89.2701728 L632.851351,87.7915691 L625.689189,20.1790553 L573.662162,25.6902144 Z M567.310811,20.4478923 L630.959459,13.861385 L632.581081,29.4539329 L642.851351,28.6474218 L646.5,63.3273991 L676.905405,9.15673688 L751.094595,1.09162588 L740.013513,18.4316145 L762.986486,16.0120812 L704.878378,105.400395 L796.77027,204.60126 L716.77027,213.069627 L704.878378,198.28359 L698.527027,198.821264 L655.283784,145.322694 L663.121622,218.580786 L599.202703,225.167293 L597.445946,209.574745 L587.175676,210.650093 L567.310811,20.4478923 Z" fill="#455A64"></path>
        </g>
    </g>
</svg>
